<svg xmlns="http://www.w3.org/2000/svg" width="375" height="812" viewBox="0 0 375 812"><rect width="100%" height="100%" fill="#000000"/><path fill="#000000" d="m80.125 398.575-3.25-.58q.37-2.6 1.45-4.56 1.07-1.96 2.69-3.27 1.61-1.32 3.7-1.98 2.08-.66 4.48-.66 2.5 0 4.52.71 2.01.71 3.43 1.98 1.43 1.26 2.19 2.96t.76 3.67q0 1.73-.38 3.04-.39 1.31-1.12 2.29-.72.97-1.8 1.65-1.07.67-2.42 1.12 3.25 1.03 4.85 3.13 1.6 2.1 1.6 5.27 0 2.7-1 4.78-1 2.07-2.7 3.49-1.7 1.41-3.94 2.13-2.24.73-4.74.73-2.72 0-4.75-.63-2.02-.62-3.52-1.85-1.5-1.22-2.55-3-1.05-1.77-1.8-4.1l2.72-1.12q1.08-.45 2.02-.24.93.21 1.36 1.01.45.88.99 1.73.53.85 1.28 1.51t1.77 1.08q1.01.41 2.41.41 1.57 0 2.75-.51 1.17-.52 1.96-1.34.79-.83 1.18-1.84.38-1.01.38-2.04 0-1.3-.27-2.36-.28-1.06-1.15-1.81-.88-.75-2.51-1.18-1.64-.42-4.39-.42v-4.4q2.27-.03 3.77-.43t2.39-1.11q.89-.71 1.24-1.71t.35-2.2q0-2.55-1.43-3.88-1.42-1.32-3.8-1.32-1.1 0-2.02.31-.93.31-1.66.88-.74.56-1.24 1.31t-.75 1.65q-.43 1.15-1.11 1.52-.69.38-1.94.18Zm25.37-10.65h24.98v2.67q0 1.21-.25 1.94-.25.74-.5 1.24l-13.7 28.2q-.43.87-1.2 1.49-.78.61-2.08.61h-4.47l13.97-27.63q.48-.85.94-1.56.46-.71 1.04-1.36h-17.3q-.58 0-1-.43-.43-.42-.43-1v-4.17Zm38.1 5.6-1.27 7.52q1.2-.25 2.3-.36 1.1-.11 2.12-.11 2.85 0 5.03.85 2.17.85 3.65 2.35 1.47 1.5 2.22 3.51.75 2.01.75 4.34 0 2.87-1.01 5.25-1.01 2.37-2.81 4.06-1.8 1.69-4.26 2.61-2.47.93-5.37.93-1.7 0-3.22-.35-1.53-.35-2.86-.94-1.34-.59-2.48-1.35-1.14-.76-2.04-1.61l1.9-2.63q.6-.85 1.58-.85.62 0 1.27.4t1.49.88q.84.47 1.98.87 1.13.4 2.73.4 1.7 0 3-.55t2.17-1.53q.86-.99 1.3-2.35.43-1.37.43-2.97 0-2.95-1.71-4.61-1.71-1.66-5.06-1.66-2.58 0-5.28.95l-3.85-1.1 3-17.55h17.85v2.63q0 1.32-.82 2.14-.83.83-2.8.83h-9.93Zm56.03 22.27-3.28 3.23-8.47-8.48-8.55 8.53-3.28-3.22 8.55-8.58-8.15-8.15 3.25-3.25 8.15 8.15 8.1-8.1 3.3 3.25-8.12 8.12 8.5 8.5Zm29.35 3.86q1.52 0 2.67-.44t1.94-1.22q.79-.77 1.19-1.85.4-1.07.4-2.32 0-2.98-1.65-4.5-1.65-1.53-4.55-1.53t-4.55 1.53q-1.65 1.52-1.65 4.5 0 1.25.4 2.32.4 1.08 1.19 1.85.78.78 1.93 1.22 1.16.44 2.68.44Zm0-27.48q-1.38 0-2.38.42-1 .43-1.66 1.14-.66.71-.97 1.64-.32.92-.32 1.95 0 1.07.27 2.09.26 1.01.88 1.8.63.78 1.66 1.26 1.02.47 2.52.47t2.52-.47q1.03-.48 1.65-1.26.63-.79.89-1.8.26-1.02.26-2.09 0-1.03-.32-1.95-.33-.93-.98-1.64-.65-.71-1.65-1.14-1-.42-2.37-.42Zm6.1 13.05q3.3 1.07 4.88 3.29 1.57 2.21 1.57 5.41 0 2.4-.91 4.35-.91 1.95-2.57 3.32-1.65 1.38-3.96 2.13t-5.11.75q-2.8 0-5.11-.75-2.32-.75-3.97-2.13-1.65-1.37-2.56-3.32-.91-1.95-.91-4.35 0-3.2 1.57-5.41 1.58-2.22 4.88-3.29-2.63-1.1-3.94-3.13-1.31-2.02-1.31-4.87 0-2.05.84-3.83.83-1.77 2.33-3.08 1.5-1.32 3.59-2.05 2.09-.74 4.59-.74t4.59.74q2.08.73 3.58 2.05 1.5 1.31 2.34 3.08.84 1.78.84 3.83 0 2.85-1.31 4.87-1.31 2.03-3.94 3.13Zm27.77 14.22h6.5v4.63h-20v-4.63h7.33v-21.07q0-1.25.07-2.58l-5.2 4.35q-.45.35-.88.44-.44.09-.83.01-.39-.07-.69-.26-.3-.19-.45-.41l-1.95-2.68 11.03-9.37h5.07v31.57Zm24.88-1.12h9.27q1 0 1.59.56.59.56.59 1.49v3.7h-24.8v-2.05q0-.63.26-1.31.26-.69.84-1.24l10.98-11q1.37-1.4 2.46-2.68 1.08-1.27 1.81-2.52t1.11-2.54q.39-1.29.39-2.71 0-1.3-.38-2.29-.37-.99-1.06-1.66-.69-.68-1.65-1.01-.96-.34-2.16-.34-1.1 0-2.04.31t-1.66.88q-.73.56-1.23 1.31t-.75 1.65q-.42 1.15-1.1 1.52-.67.38-1.95.18l-3.25-.58q.38-2.6 1.45-4.56 1.08-1.96 2.69-3.27 1.61-1.32 3.7-1.98 2.09-.66 4.49-.66 2.5 0 4.57.74 2.08.73 3.56 2.08 1.47 1.35 2.29 3.25.83 1.9.83 4.23 0 2-.59 3.7-.59 1.7-1.57 3.25-.99 1.55-2.32 3-1.32 1.45-2.77 2.95l-8.15 8.32q1.17-.35 2.34-.53 1.16-.19 2.21-.19Z"/></svg>